<svg width="20" height="32" viewBox="0 0 20 32" fill="none" xmlns="http://www.w3.org/2000/svg">
<path d="M1.74607 18.0709L14.1127 30.4375C14.3839 30.7109 14.7065 30.9279 15.0619 31.076C15.4173 31.2241 15.7985 31.3003 16.1836 31.3003C16.5686 31.3003 16.9498 31.2241 17.3052 31.076C17.6607 30.9279 17.9833 30.7109 18.2544 30.4375C18.7976 29.8911 19.1025 29.1518 19.1025 28.3813C19.1025 27.6108 18.7976 26.8715 18.2544 26.325L7.9294 16.0001L18.2544 5.67505C18.7976 5.12858 19.1025 4.38934 19.1025 3.6188C19.1025 2.84826 18.7976 2.10903 18.2544 1.56255C17.9819 1.29223 17.6587 1.07837 17.3033 0.933222C16.9479 0.788074 16.5674 0.714502 16.1836 0.716722C15.7997 0.714502 15.4192 0.788074 15.0638 0.933221C14.7085 1.07837 14.3853 1.29223 14.1127 1.56255L1.74607 13.9292C1.47269 14.2004 1.25571 14.5229 1.10764 14.8784C0.95956 15.2338 0.883321 15.615 0.883321 16C0.883321 16.3851 0.95956 16.7663 1.10763 17.1217C1.25571 17.4772 1.47269 17.7997 1.74607 18.0709Z" fill="white"/>
</svg>
