<svg width="30" height="30" viewBox="0 0 30 30" fill="none" xmlns="http://www.w3.org/2000/svg">
<path d="M26.115 16.5C25.785 16.5 25.44 16.395 25.11 16.32C24.4423 16.1707 23.7857 15.9752 23.145 15.735C22.4491 15.4818 21.6842 15.495 20.9975 15.7719C20.3107 16.0488 19.7506 16.57 19.425 17.235L19.095 17.925C17.6382 17.0988 16.2925 16.0907 15.09 14.925C13.9243 13.7226 12.9162 12.3768 12.09 10.92L12.78 10.605C13.4451 10.2794 13.9662 9.7193 14.2431 9.03254C14.52 8.34578 14.5332 7.58087 14.28 6.885C14.0418 6.23855 13.8464 5.57712 13.695 4.905C13.62 4.575 13.56 4.23 13.515 3.9C13.3329 2.84343 12.7795 1.88661 11.9544 1.20186C11.1294 0.517105 10.0871 0.149413 9.01501 0.165H4.50001C3.86588 0.164169 3.23874 0.297372 2.65969 0.555876C2.08064 0.814379 1.56277 1.19235 1.14001 1.665C0.708494 2.15048 0.387186 2.72362 0.198169 3.34505C0.00915077 3.96648 -0.0430974 4.62147 0.0450138 5.265C0.860395 11.5082 3.71283 17.308 8.16001 21.765C12.617 26.2122 18.4168 29.0646 24.66 29.88C24.8547 29.8949 25.0503 29.8949 25.245 29.88C26.3511 29.8816 27.4191 29.4758 28.245 28.74C28.7177 28.3172 29.0956 27.7994 29.3541 27.2203C29.6126 26.6413 29.7458 26.0141 29.745 25.38V20.88C29.7369 19.8436 29.3713 18.8417 28.7099 18.0436C28.0485 17.2456 27.1319 16.7004 26.115 16.5ZM26.85 25.5C26.8495 25.7093 26.8052 25.9162 26.72 26.1074C26.6347 26.2985 26.5104 26.4698 26.355 26.61C26.1906 26.7598 25.995 26.8711 25.7822 26.936C25.5695 27.0008 25.345 27.0176 25.125 26.985C19.5274 26.2539 14.3254 23.703 10.32 19.725C6.31122 15.7162 3.73806 10.4961 3.00001 4.875C2.96743 4.655 2.98417 4.43051 3.04903 4.21778C3.11388 4.00505 3.22523 3.8094 3.37501 3.645C3.51694 3.48773 3.69058 3.3623 3.88449 3.27698C4.07839 3.19167 4.28817 3.14839 4.50001 3.15H9.00001C9.34676 3.14153 9.68572 3.25348 9.95921 3.4668C10.2327 3.68012 10.4238 3.98163 10.5 4.32C10.5 4.725 10.635 5.145 10.725 5.55C10.8984 6.33579 11.129 7.10786 11.415 7.86L9.31501 8.85C8.95406 9.01569 8.67355 9.31778 8.53501 9.69C8.38499 10.0552 8.38499 10.4648 8.53501 10.83C10.6938 15.4541 14.4109 19.1712 19.035 21.33C19.4002 21.48 19.8098 21.48 20.175 21.33C20.5472 21.1915 20.8493 20.911 21.015 20.55L21.96 18.45C22.7339 18.7322 23.5256 18.9627 24.33 19.14C24.72 19.23 25.14 19.305 25.545 19.365C25.8834 19.4412 26.1849 19.6323 26.3982 19.9058C26.6115 20.1793 26.7235 20.5183 26.715 20.865L26.85 25.5ZM18 0C17.655 0 17.295 0 16.95 0C16.5522 0.0338151 16.1841 0.224281 15.9267 0.529496C15.6693 0.834711 15.5437 1.22968 15.5775 1.6275C15.6113 2.02532 15.8018 2.39342 16.107 2.65082C16.4122 2.90821 16.8072 3.03382 17.205 3H18C20.387 3 22.6761 3.94821 24.364 5.63604C26.0518 7.32387 27 9.61305 27 12C27 12.27 27 12.525 27 12.795C26.9668 13.1907 27.0918 13.5835 27.3477 13.8872C27.6035 14.1908 27.9694 14.3807 28.365 14.415H28.485C28.8605 14.4165 29.2229 14.2772 29.5007 14.0244C29.7784 13.7717 29.9512 13.424 29.985 13.05C29.985 12.705 29.985 12.345 29.985 12C29.985 8.82 28.7228 5.77002 26.4756 3.52002C24.2284 1.27001 21.18 0.003975 18 0ZM21 12C21 12.3978 21.158 12.7794 21.4394 13.0607C21.7207 13.342 22.1022 13.5 22.5 13.5C22.8978 13.5 23.2794 13.342 23.5607 13.0607C23.842 12.7794 24 12.3978 24 12C24 10.4087 23.3679 8.88258 22.2427 7.75736C21.1174 6.63214 19.5913 6 18 6C17.6022 6 17.2207 6.15804 16.9394 6.43934C16.658 6.72064 16.5 7.10218 16.5 7.5C16.5 7.89782 16.658 8.27936 16.9394 8.56066C17.2207 8.84196 17.6022 9 18 9C18.7957 9 19.5587 9.31607 20.1213 9.87868C20.6839 10.4413 21 11.2044 21 12Z" fill="#446CDB"/>
</svg>
