<svg width="20" height="32" viewBox="0 0 20 32" fill="none" xmlns="http://www.w3.org/2000/svg">
<path d="M18.2542 13.9291L5.88752 1.56245C5.61637 1.28908 5.29379 1.07209 4.93836 0.924018C4.58294 0.775943 4.20172 0.699707 3.81668 0.699707C3.43165 0.699707 3.05042 0.775943 2.695 0.924018C2.33958 1.07209 2.01699 1.28908 1.74585 1.56245C1.20262 2.10893 0.897705 2.84816 0.897705 3.6187C0.897705 4.38924 1.20262 5.12848 1.74585 5.67495L12.0708 16L1.74585 26.3249C1.20262 26.8714 0.897705 27.6107 0.897705 28.3812C0.897705 29.1517 1.20262 29.891 1.74585 30.4375C2.01838 30.7078 2.3416 30.9216 2.69696 31.0668C3.05232 31.2119 3.43283 31.2855 3.81668 31.2833C4.20054 31.2855 4.58105 31.2119 4.93641 31.0668C5.29177 30.9216 5.61498 30.7078 5.88752 30.4375L18.2542 18.0708C18.5276 17.7996 18.7445 17.4771 18.8926 17.1216C19.0407 16.7662 19.1169 16.385 19.1169 16C19.1169 15.6149 19.0407 15.2337 18.8926 14.8783C18.7445 14.5228 18.5276 14.2003 18.2542 13.9291Z" fill="white"/>
</svg>
