<svg width="91" height="64" viewBox="0 0 91 64" fill="none" xmlns="http://www.w3.org/2000/svg">
<path d="M89.325 56.6151L66.825 20.6151C66.4215 19.9639 65.8583 19.4265 65.1889 19.0538C64.5196 18.6812 63.7661 18.4856 63 18.4856C62.2339 18.4856 61.4805 18.6812 60.8111 19.0538C60.1418 19.4265 59.5786 19.9639 59.175 20.6151L54.675 27.9501L39.87 2.75006C39.4716 2.07856 38.9053 1.52229 38.2268 1.13592C37.5482 0.749555 36.7808 0.546387 36 0.546387C35.2192 0.546387 34.4518 0.749555 33.7733 1.13592C33.0948 1.52229 32.5285 2.07856 32.13 2.75006L0.630033 56.7501C0.236205 57.4322 0.0283015 58.2057 0.0271048 58.9933C0.0259081 59.7809 0.231459 60.5551 0.623213 61.2384C1.01497 61.9217 1.5792 62.4902 2.25952 62.8871C2.93984 63.284 3.71242 63.4953 4.50003 63.5001H85.5C86.3041 63.5017 87.0938 63.2878 87.7872 62.8808C88.4806 62.4737 89.0523 61.8883 89.4428 61.1855C89.8332 60.4826 90.0283 59.688 90.0076 58.8842C89.9869 58.0804 89.7512 57.2969 89.325 56.6151ZM38.025 54.5001H12.33L36 14.0001L49.185 36.5001L38.025 54.5001ZM48.6 54.5001L58.5 39.0651L63 31.5051L77.4 54.5001H48.6Z" fill="#666666"/>
</svg>
