<svg width="14" height="8" viewBox="0 0 14 8" fill="none" xmlns="http://www.w3.org/2000/svg">
<path d="M7.88738 7.53761L13.1874 2.23761C13.3045 2.12141 13.3975 1.98316 13.461 1.83083C13.5245 1.67851 13.5571 1.51513 13.5571 1.35011C13.5571 1.1851 13.5245 1.02171 13.461 0.869391C13.3975 0.717067 13.3045 0.578815 13.1874 0.462612C12.9532 0.229798 12.6364 0.0991211 12.3061 0.099121C11.9759 0.099121 11.6591 0.229798 11.4249 0.462612L6.99988 4.88761L2.57488 0.462611C2.34068 0.229797 2.02386 0.0991206 1.69363 0.0991206C1.3634 0.0991206 1.04659 0.229797 0.812383 0.462611C0.696531 0.579411 0.604876 0.717931 0.542669 0.870228C0.480464 1.02252 0.448933 1.1856 0.449884 1.35011C0.448933 1.51462 0.480464 1.6777 0.542669 1.82999C0.604875 1.98229 0.696531 2.12081 0.812383 2.23761L6.11238 7.53761C6.22859 7.65477 6.36684 7.74776 6.51916 7.81122C6.67149 7.87468 6.83487 7.90736 6.99988 7.90736C7.1649 7.90736 7.32828 7.87468 7.4806 7.81122C7.63293 7.74776 7.77118 7.65477 7.88738 7.53761Z" fill="#666666"/>
</svg>
